<svg width="42" height="42" viewBox="0 0 42 42" fill="none" xmlns="http://www.w3.org/2000/svg">
<g id="ant-design:twitter-outlined">
<path id="Vector" d="M37.6449 11.081C36.4201 11.6094 35.0873 11.9896 33.7144 12.1377C35.1398 11.2909 36.2072 9.95311 36.7163 8.37529C35.3788 9.17096 33.9135 9.7289 32.3855 10.0244C31.7469 9.34162 30.9745 8.79772 30.1165 8.42655C29.2584 8.05538 28.3332 7.86489 27.3983 7.86696C23.6158 7.86696 20.5739 10.9329 20.5739 14.6954C20.5739 15.2237 20.6379 15.7521 20.742 16.2604C15.0783 15.9642 10.027 13.2585 6.66884 9.11577C6.05694 10.1609 5.73629 11.3509 5.74023 12.562C5.74023 14.9315 6.94502 17.0209 8.78221 18.2497C7.69952 18.2071 6.64219 17.9095 5.69621 17.3811V17.4652C5.69621 20.7833 8.04173 23.5331 11.1678 24.1655C10.5808 24.318 9.97701 24.396 9.37059 24.3977C8.9263 24.3977 8.50603 24.3537 8.08175 24.2936C8.94631 26.9994 11.4639 28.9647 14.4619 29.0287C12.1164 30.8659 9.17846 31.9466 5.98839 31.9466C5.41602 31.9466 4.88768 31.9266 4.33932 31.8625C7.36529 33.8038 10.9556 34.9245 14.8221 34.9245C27.3743 34.9245 34.2427 24.5258 34.2427 15.4999C34.2427 15.2037 34.2427 14.9075 34.2227 14.6113C35.5516 13.6387 36.7163 12.4339 37.6449 11.081Z" fill="#2091F9"/>
</g>
</svg>
