<svg width="42" height="42" viewBox="0 0 42 42" fill="none" xmlns="http://www.w3.org/2000/svg">
<g id="ant-design:twitter-outlined">
<path id="Vector" d="M37.6852 10.6853C36.4604 11.2136 35.1275 11.5939 33.7546 11.742C35.18 10.8952 36.2474 9.55736 36.7566 7.97954C35.419 8.77521 33.9538 9.33315 32.4258 9.62861C31.7871 8.94587 31.0147 8.40197 30.1567 8.0308C29.2987 7.65963 28.3734 7.46914 27.4385 7.47121C23.6561 7.47121 20.6141 10.5372 20.6141 14.2996C20.6141 14.828 20.6782 15.3563 20.7822 15.8647C15.1185 15.5685 10.0673 12.8627 6.70909 8.72002C6.09719 9.76516 5.77654 10.9552 5.78049 12.1663C5.78049 14.5358 6.98527 16.6251 8.82246 17.8539C7.73978 17.8113 6.68244 17.5137 5.73646 16.9854V17.0694C5.73646 20.3876 8.08198 23.1374 11.208 23.7698C10.6211 23.9222 10.0173 24.0002 9.41084 24.0019C8.96655 24.0019 8.54628 23.9579 8.12201 23.8979C8.98657 26.6036 11.5042 28.5689 14.5021 28.6329C12.1566 30.4701 9.21872 31.5508 6.02865 31.5508C5.45628 31.5508 4.92793 31.5308 4.37958 31.4668C7.40554 33.408 10.9959 34.5288 14.8624 34.5288C27.4145 34.5288 34.283 24.13 34.283 15.1042C34.283 14.808 34.283 14.5118 34.263 14.2156C35.5918 13.243 36.7566 12.0382 37.6852 10.6853Z" fill="white"/>
</g>
</svg>
