<svg width="42" height="42" viewBox="0 0 42 42" fill="none" xmlns="http://www.w3.org/2000/svg">
<g id="ant-design:facebook-filled">
<path id="Vector" d="M35.7505 4.98975H6.29139C5.58293 4.98975 5.01056 5.56212 5.01056 6.27058V35.7297C5.01056 36.4382 5.58293 37.0105 6.29139 37.0105H35.7505C36.459 37.0105 37.0313 36.4382 37.0313 35.7297V6.27058C37.0313 5.56212 36.459 4.98975 35.7505 4.98975ZM32.0521 14.3358H29.4944C27.4891 14.3358 27.1009 15.2884 27.1009 16.6893V19.7753H31.888L31.2636 24.6065H27.1009V37.0105H22.1097V24.6105H17.9349V19.7753H22.1097V16.213C22.1097 12.0783 24.6353 9.82488 28.3257 9.82488C30.0948 9.82488 31.6118 9.95697 32.0561 10.017V14.3358H32.0521Z" fill="white"/>
</g>
</svg>
