<svg width="42" height="42" viewBox="0 0 42 42" fill="none" xmlns="http://www.w3.org/2000/svg">
<g id="ant-design:linkedin-filled">
<path id="Vector" d="M35.7384 4.98975H6.27924C5.57078 4.98975 4.99841 5.56212 4.99841 6.27058V35.7297C4.99841 36.4382 5.57078 37.0105 6.27924 37.0105H35.7384C36.4468 37.0105 37.0192 36.4382 37.0192 35.7297V6.27058C37.0192 5.56212 36.4468 4.98975 35.7384 4.98975ZM14.4966 32.2755H9.74549V16.9935H14.4966V32.2755ZM12.123 14.9042C11.5784 14.9042 11.046 14.7427 10.5931 14.4401C10.1403 14.1375 9.7873 13.7074 9.57887 13.2042C9.37044 12.701 9.31591 12.1473 9.42216 11.6132C9.52842 11.079 9.79069 10.5883 10.1758 10.2032C10.5609 9.81805 11.0516 9.55577 11.5858 9.44952C12.12 9.34326 12.6737 9.3978 13.1769 9.60623C13.6801 9.81465 14.1101 10.1676 14.4127 10.6205C14.7153 11.0733 14.8768 11.6057 14.8768 12.1504C14.8728 13.6714 13.64 14.9042 12.123 14.9042ZM32.2841 32.2755H27.537V24.8426C27.537 23.0695 27.505 20.792 25.0674 20.792C22.5978 20.792 22.2176 22.7213 22.2176 24.7145V32.2755H17.4745V16.9935H22.0295V19.0829H22.0935C22.7259 17.8821 24.2749 16.6133 26.5884 16.6133C31.3995 16.6133 32.2841 19.7793 32.2841 23.894V32.2755Z" fill="white"/>
</g>
</svg>
