<svg width="57" height="56" viewBox="0 0 57 56" fill="none" xmlns="http://www.w3.org/2000/svg">
<g id="mdi:draw">
<path id="Vector" d="M23.2498 48.6502C27.4031 47.0168 26.4931 42.5135 24.3931 39.6668C22.3164 36.7502 19.4464 34.7435 16.5531 32.8068C14.4887 31.5057 12.6455 29.883 11.0931 28.0002C10.4398 27.2302 9.10978 25.8068 10.4631 25.5268C11.8398 25.2468 14.2198 26.6002 15.4331 27.1135C17.5564 28.0002 19.6564 29.0268 21.6164 30.2402L23.9731 26.2735C20.3331 23.8702 15.6664 21.7468 11.3264 21.1168C8.85311 20.7435 6.23978 21.2568 5.39978 23.9402C4.65311 26.2502 5.84311 28.5835 7.19644 30.4035C10.3931 34.6735 15.3631 36.7268 19.0731 40.4135C19.8664 41.1835 20.8231 42.0935 21.2898 43.1668C21.7798 44.1935 21.6631 44.2635 20.5664 44.2635C17.6731 44.2635 14.0564 42.0002 11.6998 40.5068L9.34311 44.4735C12.9131 46.6668 18.8864 50.0968 23.2498 48.6502ZM49.1264 12.2502C49.6398 11.7368 49.6398 10.8968 49.1264 10.4068L46.0931 7.37349C45.8487 7.13795 45.5225 7.00635 45.1831 7.00635C44.8437 7.00635 44.5175 7.13795 44.2731 7.37349L41.8931 9.75349L46.7464 14.6068L49.1264 12.2502ZM26.1664 25.4802V30.3335H31.0198L45.3698 15.9835L40.5164 11.1302L26.1664 25.4802Z" fill="#2091F9"/>
</g>
</svg>
