<svg width="61" height="61" viewBox="0 0 61 61" fill="none" xmlns="http://www.w3.org/2000/svg">
<g id="mdi:brush">
<path id="Vector" d="M52.6379 11.7679L49.2321 8.36209C48.2916 7.37084 46.6396 7.37084 45.6483 8.36209L22.875 31.1354L29.8646 38.125L52.6379 15.3517C53.6291 14.3604 53.6291 12.7083 52.6379 11.7679ZM17.7916 35.5833C15.7694 35.5833 13.8299 36.3867 12.4 37.8167C10.97 39.2466 10.1666 41.1861 10.1666 43.2083C10.1666 46.5379 7.21831 48.2917 5.08331 48.2917C7.42165 51.3925 11.4375 53.375 15.25 53.375C17.9463 53.375 20.5323 52.3039 22.4389 50.3973C24.3455 48.4906 25.4166 45.9047 25.4166 43.2083C25.4166 41.1861 24.6133 39.2466 23.1833 37.8167C21.7534 36.3867 19.8139 35.5833 17.7916 35.5833Z" fill="#2091F9"/>
</g>
</svg>
